<?xml version="1.0" encoding="utf-8"?>
<!-- Generator: Adobe Illustrator 25.2.3, SVG Export Plug-In . SVG Version: 6.00 Build 0)  -->
<svg version="1.1" id="Gradient" xmlns="http://www.w3.org/2000/svg" xmlns:xlink="http://www.w3.org/1999/xlink" x="0px" y="0px"
	 viewBox="0 0 512 512" enable-background="new 0 0 512 512" xml:space="preserve">
<linearGradient id="SVGID_1_" gradientUnits="userSpaceOnUse" x1="52.0016" y1="-68.3478" x2="560.6996" y2="440.3502">
	<stop  offset="0.2235" style="stop-color:#F2AFAF"/>
	<stop  offset="0.2274" style="stop-color:#F2ADAD"/>
	<stop  offset="0.2762" style="stop-color:#ED9492"/>
	<stop  offset="0.326" style="stop-color:#EA837F"/>
	<stop  offset="0.3772" style="stop-color:#E97874"/>
	<stop  offset="0.4317" style="stop-color:#E87570"/>
	<stop  offset="0.6462" style="stop-color:#E25A5A"/>
	<stop  offset="0.8318" style="stop-color:#DB4D4D"/>
</linearGradient>
<path fill="url(#SVGID_1_)" d="M318.006,74.344c-3.125-3.125-8.188-3.125-11.312,0l-112,112c-3.125,3.125-3.125,8.188,0,11.312
	c1.562,1.562,3.609,2.344,5.656,2.344s4.094-0.781,5.656-2.344l112-112C321.131,82.531,321.131,77.469,318.006,74.344z"/>
<linearGradient id="SVGID_2_" gradientUnits="userSpaceOnUse" x1="56.0016" y1="-72.3478" x2="564.6996" y2="436.3502">
	<stop  offset="0.2235" style="stop-color:#F2AFAF"/>
	<stop  offset="0.2274" style="stop-color:#F2ADAD"/>
	<stop  offset="0.2762" style="stop-color:#ED9492"/>
	<stop  offset="0.326" style="stop-color:#EA837F"/>
	<stop  offset="0.3772" style="stop-color:#E97874"/>
	<stop  offset="0.4317" style="stop-color:#E87570"/>
	<stop  offset="0.6462" style="stop-color:#E25A5A"/>
	<stop  offset="0.8318" style="stop-color:#DB4D4D"/>
</linearGradient>
<path fill="url(#SVGID_2_)" d="M232.349,128c13.234,0,24-10.766,24-24s-10.766-24-24-24s-24,10.766-24,24S219.115,128,232.349,128z
	 M232.349,96c4.41,0,8,3.59,8,8s-3.59,8-8,8s-8-3.59-8-8S227.939,96,232.349,96z"/>
<linearGradient id="SVGID_3_" gradientUnits="userSpaceOnUse" x1="56.0016" y1="-72.3478" x2="564.6996" y2="436.3502">
	<stop  offset="0.2235" style="stop-color:#F2AFAF"/>
	<stop  offset="0.2274" style="stop-color:#F2ADAD"/>
	<stop  offset="0.2762" style="stop-color:#ED9492"/>
	<stop  offset="0.326" style="stop-color:#EA837F"/>
	<stop  offset="0.3772" style="stop-color:#E97874"/>
	<stop  offset="0.4317" style="stop-color:#E87570"/>
	<stop  offset="0.6462" style="stop-color:#E25A5A"/>
	<stop  offset="0.8318" style="stop-color:#DB4D4D"/>
</linearGradient>
<path fill="url(#SVGID_3_)" d="M288.349,136c-13.234,0-24,10.766-24,24s10.766,24,24,24s24-10.766,24-24S301.584,136,288.349,136z
	 M288.349,168c-4.41,0-8-3.59-8-8s3.59-8,8-8s8,3.59,8,8S292.76,168,288.349,168z"/>
<linearGradient id="SVGID_4_" gradientUnits="userSpaceOnUse" x1="-44.8246" y1="28.4783" x2="463.8734" y2="537.1764">
	<stop  offset="0.2235" style="stop-color:#F2AFAF"/>
	<stop  offset="0.2274" style="stop-color:#F2ADAD"/>
	<stop  offset="0.2762" style="stop-color:#ED9492"/>
	<stop  offset="0.326" style="stop-color:#EA837F"/>
	<stop  offset="0.3772" style="stop-color:#E97874"/>
	<stop  offset="0.4317" style="stop-color:#E87570"/>
	<stop  offset="0.6462" style="stop-color:#E25A5A"/>
	<stop  offset="0.8318" style="stop-color:#DB4D4D"/>
</linearGradient>
<path fill="url(#SVGID_4_)" d="M464.463,214.34c-0.153-0.306-0.42-0.498-0.605-0.775c-1.042-3.207-3.954-5.564-7.508-5.564h-104
	v-31.988l37.391-34.102c1.664-1.516,2.609-3.66,2.609-5.91s-0.945-4.395-2.609-5.91l-37.391-34.102V48c0-4.418-3.582-8-8-8h-47.988
	L262.26,2.609c-3.031-3.328-8.789-3.328-11.82,0L216.338,40h-47.988c-4.418,0-8,3.582-8,8v47.988l-37.391,34.102
	c-1.664,1.516-2.609,3.66-2.609,5.91s0.945,4.395,2.609,5.91l37.391,34.102V208h-104c-3.642,0-6.59,2.481-7.558,5.811
	c-0.26,0.356-0.602,0.626-0.806,1.033l-45.918,91.91c-1.141,2.289-1.719,4.699-1.719,7.168v33.68
	c0,7.676,5.047,13.949,12.555,15.609c1.18,0.258,2.363,0.387,3.523,0.387c6.129,0,11.785-3.504,14.469-9.285l17.453-37.853V496
	c0,8.824,7.176,16,16,16h384c8.824,0,16-7.176,16-16V316.459l17.461,37.869c2.68,5.77,8.328,9.27,14.457,9.27
	c1.164,0,2.348-0.129,3.527-0.387c7.508-1.66,12.555-7.934,12.555-15.609v-33.68c0-2.469-0.578-4.879-1.723-7.176L464.463,214.34z
	 M16.349,347.602l0.035-33.707l31.965-63.981v28.327L16.349,347.602z M64.349,496V292.909l0.996,4.736
	c0.793,3.77,4.117,6.355,7.82,6.355c0.547,0,1.098-0.055,1.652-0.172c4.324-0.91,7.094-5.152,6.184-9.477L66.205,224h182.144
	c4.418,0,8-3.582,8-8s-3.582-8-8-8h-72v-35.52c0-2.25-0.945-4.395-2.609-5.91L140.22,136l33.52-30.57
	c1.664-1.516,2.609-3.66,2.609-5.91V56h43.52c2.25,0,4.395-0.945,5.91-2.609l30.57-33.52l30.57,33.52
	c1.516,1.664,3.66,2.609,5.91,2.609h43.52v43.52c0,2.25,0.945,4.395,2.609,5.91l33.52,30.57l-33.52,30.57
	c-1.664,1.516-2.609,3.66-2.609,5.91V208h-56c-4.418,0-8,3.582-8,8s3.582,8,8,8h166.143l-28.623,136l-323.051,0.035l-8.766-41.68
	c-0.91-4.328-5.16-7.102-9.473-6.184c-4.324,0.91-7.094,5.152-6.184,9.473l8.777,41.738C80.763,370.691,87.349,376,94.83,376
	h323.039c7.48,0,14.066-5.309,15.668-12.672l14.812-70.423V496H64.349z M496.334,347.609l-31.984-69.368v-28.344l32,64.024
	L496.334,347.609z"/>
<linearGradient id="SVGID_5_" gradientUnits="userSpaceOnUse" x1="-39.9984" y1="23.6522" x2="468.6996" y2="532.3502">
	<stop  offset="0.2235" style="stop-color:#F2AFAF"/>
	<stop  offset="0.2274" style="stop-color:#F2ADAD"/>
	<stop  offset="0.2762" style="stop-color:#ED9492"/>
	<stop  offset="0.326" style="stop-color:#EA837F"/>
	<stop  offset="0.3772" style="stop-color:#E97874"/>
	<stop  offset="0.4317" style="stop-color:#E87570"/>
	<stop  offset="0.6462" style="stop-color:#E25A5A"/>
	<stop  offset="0.8318" style="stop-color:#DB4D4D"/>
</linearGradient>
<path fill="url(#SVGID_5_)" d="M416.349,408h-72c-8.824,0-16,7.176-16,16v40c0,8.824,7.176,16,16,16h72c8.824,0,16-7.176,16-16v-40
	C432.349,415.176,425.174,408,416.349,408z M416.326,464h-71.977v-40h72L416.326,464z"/>
<linearGradient id="SVGID_6_" gradientUnits="userSpaceOnUse" x1="-7.669" y1="-8.6773" x2="501.0291" y2="500.0208">
	<stop  offset="0.2235" style="stop-color:#F2AFAF"/>
	<stop  offset="0.2274" style="stop-color:#F2ADAD"/>
	<stop  offset="0.2762" style="stop-color:#ED9492"/>
	<stop  offset="0.326" style="stop-color:#EA837F"/>
	<stop  offset="0.3772" style="stop-color:#E97874"/>
	<stop  offset="0.4317" style="stop-color:#E87570"/>
	<stop  offset="0.6462" style="stop-color:#E25A5A"/>
	<stop  offset="0.8318" style="stop-color:#DB4D4D"/>
</linearGradient>
<path fill="url(#SVGID_6_)" d="M43.928,0.844c-2.25-1.125-4.906-1.125-7.156,0l-32,16c-2.66,1.332-4.289,4.062-4.348,7.035
	s1.605,5.77,4.211,7.207c0.129,0.07,13.113,7.496,19.953,34.855c0.59,2.352,2.215,4.312,4.418,5.328
	c1.062,0.488,2.203,0.73,3.344,0.73c1.227,0,2.453-0.281,3.578-0.844l32-16c3.352-1.676,5.094-5.457,4.184-9.098
	C63.467,11.488,45.9,1.832,43.928,0.844z M37.326,52.566c-4.352-12.766-9.891-21.262-14.703-26.758L39.56,17.34
	c3.781,3.418,10.457,11.195,15.293,26.465L37.326,52.566z"/>
<linearGradient id="SVGID_7_" gradientUnits="userSpaceOnUse" x1="172.331" y1="-188.6773" x2="681.0291" y2="320.0208">
	<stop  offset="0.2235" style="stop-color:#F2AFAF"/>
	<stop  offset="0.2274" style="stop-color:#F2ADAD"/>
	<stop  offset="0.2762" style="stop-color:#ED9492"/>
	<stop  offset="0.326" style="stop-color:#EA837F"/>
	<stop  offset="0.3772" style="stop-color:#E97874"/>
	<stop  offset="0.4317" style="stop-color:#E87570"/>
	<stop  offset="0.6462" style="stop-color:#E25A5A"/>
	<stop  offset="0.8318" style="stop-color:#DB4D4D"/>
</linearGradient>
<path fill="url(#SVGID_7_)" d="M392.588,73.941c0.59,2.352,2.215,4.312,4.418,5.328c1.062,0.488,2.203,0.73,3.344,0.73
	c1.227,0,2.453-0.281,3.578-0.844l32-16c3.352-1.676,5.094-5.457,4.184-9.098c-8.645-34.57-26.211-44.227-28.184-45.215
	c-2.25-1.125-4.906-1.125-7.156,0l-32,16c-2.66,1.332-4.289,4.062-4.348,7.035s1.605,5.77,4.211,7.207
	C372.763,39.156,385.748,46.582,392.588,73.941z M407.56,25.34c3.781,3.418,10.457,11.195,15.293,26.465l-17.527,8.762
	c-4.352-12.766-9.891-21.262-14.703-26.758L407.56,25.34z"/>
<linearGradient id="SVGID_8_" gradientUnits="userSpaceOnUse" x1="-48" y1="31.6538" x2="460.698" y2="540.3518">
	<stop  offset="0.2235" style="stop-color:#F2AFAF"/>
	<stop  offset="0.2274" style="stop-color:#F2ADAD"/>
	<stop  offset="0.2762" style="stop-color:#ED9492"/>
	<stop  offset="0.326" style="stop-color:#EA837F"/>
	<stop  offset="0.3772" style="stop-color:#E97874"/>
	<stop  offset="0.4317" style="stop-color:#E87570"/>
	<stop  offset="0.6462" style="stop-color:#E25A5A"/>
	<stop  offset="0.8318" style="stop-color:#DB4D4D"/>
</linearGradient>
<path fill="url(#SVGID_8_)" d="M46.826,167.816c-0.91,3.637,0.824,7.418,4.176,9.098l28.402,14.238
	C80.533,191.715,81.76,192,82.99,192c1.137,0,2.277-0.242,3.34-0.73c2.207-1.012,3.832-2.973,4.422-5.328
	c5.957-23.832,17.156-30.289,17.145-30.289c2.719-1.348,4.445-4.117,4.453-7.152c0.008-3.039-1.707-5.816-4.422-7.176l-28.48-14.242
	c-2.25-1.125-4.914-1.117-7.172,0.008C70.49,127.988,54.615,136.754,46.826,167.816z M76.72,143.609l13.512,6.758
	c-4.043,4.82-8.539,11.938-12.168,22.215l-13.957-6.996C68.154,153.219,73.521,146.656,76.72,143.609z"/>
<linearGradient id="SVGID_9_" gradientUnits="userSpaceOnUse" x1="156.0617" y1="-172.408" x2="664.7598" y2="336.2901">
	<stop  offset="0.2235" style="stop-color:#F2AFAF"/>
	<stop  offset="0.2274" style="stop-color:#F2ADAD"/>
	<stop  offset="0.2762" style="stop-color:#ED9492"/>
	<stop  offset="0.326" style="stop-color:#EA837F"/>
	<stop  offset="0.3772" style="stop-color:#E97874"/>
	<stop  offset="0.4317" style="stop-color:#E87570"/>
	<stop  offset="0.6462" style="stop-color:#E25A5A"/>
	<stop  offset="0.8318" style="stop-color:#DB4D4D"/>
</linearGradient>
<path fill="url(#SVGID_9_)" d="M509.427,127.699c-0.992-2.863-3.516-4.918-6.52-5.312l-35.441-4.641
	c-2.496-0.312-4.988,0.543-6.75,2.332c-1.551,1.578-15.047,16.457-11.938,51.98c0.328,3.738,3.211,6.746,6.934,7.234l35.523,4.641
	c0.344,0.043,0.691,0.066,1.035,0.066c2.051,0,4.035-0.789,5.535-2.223c1.75-1.68,2.645-4.062,2.434-6.477
	c-2.465-28.121,7.363-39.398,7.355-39.395C509.713,133.738,510.42,130.559,509.427,127.699z M483.838,166.828l-19.484-2.543
	c-0.406-16.086,3.41-25.633,5.848-30.043l18.781,2.461C486.232,143.477,483.775,153.324,483.838,166.828z"/>
</svg>
