<?xml version="1.0" encoding="utf-8"?>
<!-- Generator: Adobe Illustrator 26.0.0, SVG Export Plug-In . SVG Version: 6.00 Build 0)  -->
<svg version="1.1" id="Capa_1" xmlns="http://www.w3.org/2000/svg" xmlns:xlink="http://www.w3.org/1999/xlink" x="0px" y="0px"
	 viewBox="0 0 58 58" style="enable-background:new 0 0 58 58;" xml:space="preserve">
<style type="text/css">
	.st0{fill:#C9CBB1;}
	.st1{fill:#666500;}
</style>
<g>
	<polygon class="st0" points="5.9,44.2 12.8,44.5 13.7,46.8 15.3,48.4 17.9,48.1 19.6,47 20.2,44.6 37.9,44.5 38.9,47.5 41.6,48.4 
		43.9,47.5 45.1,45.4 46.2,44.6 51.8,44.5 51.8,23.8 49.1,16.9 43,11.7 37.1,9.5 20.4,9.5 12.1,13.3 8.7,17.4 6.6,22.4 5.9,28.2 	
		"/>
	<g>
		<path class="st1" d="M53,43.5V27c0-10.2-8.3-18.5-18.5-18.5h-11C13.3,8.5,5,16.8,5,27v16.5H0v2h6h2l4.1,0c0,0,0,0,0,0
			c0.3,2.2,2.1,4,4.4,4c2.3,0,4.2-1.8,4.4-4c0,0,0,0,0,0c0,0,16.1,0,16.1,0c0,0,0,0,0,0c0.3,2.2,2.1,4,4.4,4c2.3,0,4.2-1.8,4.4-4
			c0,0,0,0,0,0l4,0h2h6v-2H53z M50,43.5h-4v-6h-2v6l0,1.4c0,1.2-0.7,2.3-1.9,2.5C40.5,47.8,39,46.6,39,45v-1.5v-6h-2v6H21v-6h-2v6
			l0,1.4c0,1.2-0.7,2.3-1.9,2.5C15.5,47.8,14,46.6,14,45v-1.5v-6h-2v6H8H7V27c0-9.1,7.4-16.5,16.5-16.5h11C43.6,10.5,51,17.9,51,27
			v16.5H50z"/>
		<path class="st1" d="M24.2,22.7c-2.3,2.3-6.1,2.3-8.5,0c-0.4-0.4-1-0.4-1.4,0C14.1,23,14,23.2,14,23.5h0v5h2l0-3.1c0,0,0,0,0,0
			c1.2,0.7,2.6,1,3.9,1c2,0,4.1-0.8,5.7-2.3c0.4-0.4,0.4-1,0-1.4S24.6,22.4,24.2,22.7z"/>
		<path class="st1" d="M42.2,22.7c-2.3,2.3-6.1,2.3-8.5,0c-0.4-0.4-1-0.4-1.4,0s-0.4,1,0,1.4c1.6,1.6,3.6,2.3,5.7,2.3
			c1,0,2.1-0.2,3.1-0.6v1.6h2v-2.8c0.2-0.2,0.4-0.4,0.6-0.5c0.4-0.4,0.4-1,0-1.4C43.2,22.4,42.6,22.4,42.2,22.7z"/>
		<path class="st1" d="M14.6,30.5h0.7c0.4,0,0.6,0.3,0.6,0.6v1.2c0,0.6-0.5,1.2-1.2,1.2h-0.2c-0.4,0-0.6-0.3-0.6-0.6v-1.7
			C14,30.8,14.3,30.5,14.6,30.5z"/>
		<path class="st1" d="M42.3,29.5h0.3c0.2,0,0.4,0.2,0.4,0.4v3c0,0.9-0.7,1.6-1.6,1.6l0,0c-0.2,0-0.4-0.2-0.4-0.4v-3.3
			C41,30.1,41.6,29.5,42.3,29.5z"/>
	</g>
</g>
</svg>
