<?xml version="1.0" encoding="utf-8"?>
<!-- Generator: Adobe Illustrator 26.3.1, SVG Export Plug-In . SVG Version: 6.00 Build 0)  -->
<svg version="1.1" id="Layer_1" xmlns="http://www.w3.org/2000/svg" xmlns:xlink="http://www.w3.org/1999/xlink" x="0px" y="0px"
	 viewBox="0 0 300 300" style="enable-background:new 0 0 300 300;" xml:space="preserve">
<style type="text/css">
	.st0{fill:#666720;}
	.st1{fill:#BD5252;}
	.st2{fill:#FFFFFF;}
</style>
<path class="st0" d="M182.8,127.5c-0.9,3.5-1.7,6.6-2.6,9.4c-0.9,2.4-1.9,4.8-3.3,7.4c-1.3,2.5-2.7,4.4-4.3,5.7
	c-2,1.5-3.3,3.1-4.1,4.9c-0.8,1.7-1.4,3.5-1.9,5.4s-1.1,3.8-1.8,5.7s-1.7,3.9-3.3,5.9c-5,6.5-8.8,12.8-11.3,18.9
	c-2.5,6.1-4.3,11.9-5.2,17.6s-1.3,11.2-0.8,16.8s1.3,10.9,2.6,16.1c0.9,3.9,2.2,8,3.9,12.2c1.7,4.2,4.3,8.6,7.7,13
	c3.4,4.5,7.7,8.8,12.9,13c5.2,4.2,11.8,8.3,19.6,12.2c-5.2,1.1-11.3,2.1-18.3,2.9c-5.9,0.7-13.2,1.2-21.8,1.8
	c-8.6,0.5-18.5,0.8-29.6,0.8c-5.7,0-12.3-0.2-19.8-0.7s-15.3-1-23.2-1.6s-15.8-1.4-23.6-2.3c-7.7-0.9-14.8-1.8-21.3-2.8
	c-6.5-1-11.9-2-16.4-3.1c-4.5-1.1-7.3-2.1-8.3-2.9c-2-1.7-3.5-6.6-4.6-14.5c-1.1-8-0.8-18.3,1-31.1c1.1-7.2,4-12.6,8.7-16.5
	c4.7-3.8,10.2-6.8,16.5-9c6.3-2.2,12.9-4.2,19.8-6c6.9-1.8,12.9-4.4,18.2-7.6c4.1-2.6,7.3-5,9.5-7.3c2.2-2.3,3.7-4.6,4.6-7
	c0.9-2.4,1.3-4.9,1.3-7.5s-0.1-5.4-0.3-8.5c-0.4-4.6-2-8.2-4.7-10.8s-5.6-5.2-8.7-7.8c-1.7-1.3-3.3-3.3-4.6-5.9s-2.4-5.1-3.3-7.5
	c-1.1-2.8-2-6-2.6-9.4c-1.5-0.4-2.9-1.1-4.3-1.9c-1.1-0.9-2.3-2.2-3.6-3.9s-2.5-4.3-3.6-7.8c-1.1-3.3-1.5-6.3-1.1-9.1
	c0.3-2.8,0.9-5.2,1.8-7.2c0.9-2.4,2.1-4.5,3.6-6.2c0-7.4,0.5-14.8,1.3-22.2c0.9-6.3,2.2-13,4.1-20.2c1.9-7.2,4.9-13.6,9-19.2
	c3.9-5.4,8.1-9.9,12.6-13.4c4.5-3.4,9.1-6.1,13.9-8.1s9.6-3.3,14.4-4.1c4.8-0.7,9.4-1.1,13.8-1.1c5.7,0,11.1,0.7,16.4,2
	c5.2,1.3,10.1,3.1,14.6,5.2c4.5,2.2,8.4,4.6,11.9,7.3s6.3,5.5,8.5,8.3c5,6.3,8.7,13.2,10.9,20.9s4,14.8,5.1,21.5
	c1.1,7.8,1.5,15.7,1.3,23.5c1.3,1.1,2.4,2.4,3.3,3.9c0.9,1.3,1.5,3,1.9,5.2c0.4,2.2,0.4,4.9,0,8.2c-0.4,4.1-1.3,7.4-2.6,9.8
	c-1.3,2.4-2.7,4.2-4.3,5.6C186.6,125.8,184.7,126.9,182.8,127.5L182.8,127.5z"/>
<g>
	<path class="st1" d="M228.2,285.7c-9.2,0-18-1.8-26.2-5.2c-8.2-3.5-15.4-8.3-21.6-14.4c-6.2-6.1-11-13.3-14.5-21.5
		c-3.5-8.2-5.3-16.9-5.3-26.1c0-9.2,1.8-17.9,5.3-26.1c3.5-8.2,8.4-15.3,14.5-21.3c6.2-6,13.3-10.8,21.6-14.3
		c8.2-3.5,17-5.2,26.2-5.2s18,1.8,26.2,5.2c8.2,3.5,15.4,8.2,21.4,14.3c6,6,10.8,13.1,14.3,21.3c3.5,8.2,5.3,16.9,5.3,26.1
		c0,9.2-1.8,17.9-5.3,26.1c-3.5,8.2-8.3,15.4-14.3,21.5s-13.2,10.9-21.4,14.4C246.1,284,237.4,285.7,228.2,285.7L228.2,285.7z"/>
</g>
<path class="st2" d="M258.9,234.6l-17.2-17.2l16-16c2.2-2.2,3.3-4.7,3.5-7.7c0.1-2.9-0.9-5.5-3-7.7c-2.2-2.2-4.7-3.1-7.5-2.8
	c-2.8,0.3-5.3,1.5-7.4,3.7l-16,16L212,187.8c-2.2-2.2-4.8-3.3-7.9-3.3c-3.1,0-5.7,1.1-7.9,3.2s-3,4.6-2.5,7.2c0.5,2.6,1.8,5,4,7.2
	l15.2,15.2l-16.5,16.5c-2.2,2.2-3.4,4.7-3.7,7.4c-0.3,2.8,0.6,5.3,2.8,7.5s4.7,3.2,7.7,3c2.9-0.1,5.5-1.3,7.7-3.5l16.5-16.5
	l17.2,17.2l0,0c2.2,2.2,4.2,3.9,7,4.2s5.3-0.6,7.4-2.8c2.2-2.2,3.2-4.8,3.2-7.9C262.1,239.4,261,236.8,258.9,234.6L258.9,234.6z"/>
</svg>
