<svg width="20" height="20" viewBox="0 0 20 20" fill="none" xmlns="http://www.w3.org/2000/svg">
<path fill-rule="evenodd" clip-rule="evenodd" d="M10 0C4.477 0 0 4.36 0 9.74C0 14.044 2.865 17.695 6.839 18.983C7.339 19.073 7.521 18.772 7.521 18.513C7.521 18.283 7.513 17.67 7.508 16.857C4.726 17.445 4.139 15.551 4.139 15.551C3.685 14.426 3.029 14.126 3.029 14.126C2.121 13.522 3.098 13.534 3.098 13.534C4.101 13.603 4.629 14.538 4.629 14.538C5.521 16.026 6.97 15.597 7.539 15.348C7.631 14.718 7.889 14.288 8.175 14.045C5.955 13.8 3.62 12.964 3.62 9.231C3.62 8.168 4.01 7.298 4.649 6.618C4.546 6.371 4.203 5.38 4.747 4.04C4.747 4.04 5.587 3.778 7.497 5.038C8.31374 4.82141 9.15503 4.71117 10 4.71C10.85 4.714 11.705 4.822 12.504 5.038C14.413 3.778 15.251 4.04 15.251 4.04C15.797 5.38 15.454 6.371 15.351 6.618C15.991 7.298 16.379 8.168 16.379 9.231C16.379 12.973 14.04 13.797 11.813 14.038C12.172 14.338 12.491 14.933 12.491 15.842C12.491 17.143 12.479 18.194 12.479 18.513C12.479 18.774 12.659 19.077 13.167 18.983C17.137 17.69 20 14.042 20 9.74C20 4.36 15.522 0 10 0Z" fill="black"/>
</svg>
