<?xml version="1.0" encoding="utf-8"?>
<!-- Generator: Adobe Illustrator 26.0.0, SVG Export Plug-In . SVG Version: 6.00 Build 0)  -->
<svg version="1.1" id="Layer_1" xmlns="http://www.w3.org/2000/svg" xmlns:xlink="http://www.w3.org/1999/xlink" x="0px" y="0px"
	 viewBox="0 0 300 300" style="enable-background:new 0 0 300 300;" xml:space="preserve">
<style type="text/css">
	.st0{fill:#666720;}
	.st1{fill:#7ABB50;}
</style>
<path class="st0" d="M182.75,127.48c-0.87,3.48-1.74,6.63-2.61,9.44c-0.87,2.4-1.95,4.83-3.27,7.35c-1.32,2.49-2.73,4.41-4.26,5.7
	c-1.98,1.53-3.33,3.15-4.11,4.89c-0.75,1.74-1.41,3.51-1.95,5.37s-1.14,3.75-1.8,5.7s-1.74,3.9-3.27,5.88
	c-5.01,6.54-8.78,12.83-11.27,18.92c-2.52,6.09-4.26,11.93-5.25,17.6s-1.26,11.24-0.81,16.79s1.32,10.91,2.61,16.13
	c0.87,3.9,2.19,7.98,3.93,12.23c1.74,4.23,4.32,8.57,7.68,13.04c3.39,4.47,7.71,8.78,12.92,13.04c5.25,4.23,11.78,8.3,19.64,12.2
	c-5.25,1.08-11.33,2.07-18.32,2.94c-5.88,0.66-13.16,1.23-21.77,1.77c-8.63,0.54-18.5,0.81-29.62,0.81
	c-5.67,0-12.26-0.21-19.79-0.66s-15.26-0.99-23.24-1.65s-15.8-1.41-23.57-2.28c-7.74-0.87-14.84-1.77-21.26-2.76
	c-6.45-0.99-11.9-2.01-16.37-3.12c-4.47-1.08-7.26-2.07-8.33-2.94c-1.98-1.74-3.48-6.57-4.59-14.51
	c-1.08-7.95-0.75-18.32,0.99-31.12c1.08-7.17,3.99-12.65,8.66-16.46c4.68-3.81,10.19-6.81,16.52-8.96
	c6.33-2.16,12.92-4.17,19.79-6.03c6.87-1.83,12.92-4.41,18.17-7.65c4.14-2.61,7.32-5.04,9.47-7.32c2.19-2.28,3.72-4.62,4.59-7.02
	c0.87-2.4,1.32-4.89,1.32-7.5s-0.12-5.43-0.33-8.48c-0.45-4.56-2.01-8.16-4.74-10.76s-5.61-5.22-8.66-7.83
	c-1.74-1.29-3.27-3.27-4.59-5.88s-2.4-5.1-3.27-7.5c-1.08-2.82-1.95-5.97-2.61-9.44c-1.53-0.42-2.94-1.08-4.26-1.95
	c-1.08-0.87-2.28-2.16-3.6-3.9s-2.52-4.35-3.6-7.83c-1.08-3.27-1.47-6.3-1.14-9.11c0.33-2.82,0.93-5.22,1.8-7.17
	c0.87-2.4,2.07-4.47,3.6-6.21c0-7.38,0.45-14.78,1.32-22.16c0.87-6.3,2.25-13.04,4.08-20.21c1.86-7.17,4.86-13.58,8.99-19.22
	c3.93-5.43,8.13-9.89,12.59-13.37c4.47-3.42,9.11-6.15,13.91-8.1s9.59-3.3,14.39-4.08c4.84-0.71,9.42-1.1,13.77-1.1
	c5.67,0,11.12,0.66,16.37,1.95c5.25,1.32,10.07,3.06,14.57,5.22c4.47,2.16,8.45,4.62,11.93,7.35s6.33,5.49,8.51,8.3
	c5.01,6.3,8.66,13.25,10.94,20.87s3.99,14.78,5.07,21.5c1.08,7.83,1.53,15.65,1.32,23.48c1.32,1.08,2.4,2.4,3.27,3.9
	c0.87,1.32,1.53,3.03,1.95,5.22c0.45,2.16,0.45,4.89,0,8.16c-0.45,4.14-1.32,7.38-2.61,9.77c-1.32,2.4-2.73,4.23-4.26,5.55
	C186.56,125.78,184.73,126.86,182.75,127.48L182.75,127.48z"/>
<path class="st1" d="M216.01,152.57c-34.17,6.05-58.25,37.78-55.01,72.31c2.69,28.36,22.43,51.71,50,59.11
	c5.32,1.47,7.03,1.65,16.93,1.65c10.08,0,11.49-0.12,17.11-1.65c36.06-9.78,57.46-46.45,48.04-82.4c-7.82-29.71-34.84-50.3-65.71-50
	C223.96,151.59,218.88,152.08,216.01,152.57z M211.85,194.99c7.52,1.59,14.85,7.52,17.66,14.3l1.41,3.36h19.01
	c18.46,0,19.07,0.06,20.42,1.28c2.02,1.89,2.69,4.03,1.89,6.42c-1.04,3.12-2.63,3.91-7.76,3.91h-4.46v7.58
	c0,7.21-0.06,7.76-1.47,9.35c-1.22,1.41-1.96,1.71-4.34,1.71c-2.38,0-3.12-0.31-4.34-1.71c-1.41-1.59-1.47-2.14-1.47-9.35v-7.58
	h-8.74h-8.74l-1.47,3.49c-2.02,5.01-8.19,11.13-13.14,13.02c-5.07,2.02-12.59,2.02-17.6,0.06c-4.95-1.96-10.27-6.97-12.78-12.16
	c-1.89-3.79-2.02-4.52-2.02-10.21c0-5.38,0.18-6.54,1.65-9.66c3.24-6.91,10.51-12.71,17.54-13.87
	C207.21,194.26,208.24,194.26,211.85,194.99z"/>
<path class="st1" d="M202.07,207.83c-11.06,5.62-7.15,22.49,5.26,22.56c7.03,0,11.74-4.77,11.74-11.98
	c0-6.66-4.16-11.13-10.88-11.68C205.43,206.55,204.15,206.73,202.07,207.83z"/>
</svg>
