<?xml version="1.0" encoding="utf-8"?>
<!-- Generator: Adobe Illustrator 26.3.1, SVG Export Plug-In . SVG Version: 6.00 Build 0)  -->
<svg version="1.1" id="Layer_1" xmlns="http://www.w3.org/2000/svg" xmlns:xlink="http://www.w3.org/1999/xlink" x="0px" y="0px"
	 viewBox="0 0 995 180" style="enable-background:new 0 0 995 180;" xml:space="preserve">
<style type="text/css">
	.st0{enable-background:new    ;}
	.st1{fill:#666500;}
</style>
<g class="st0">
	<path class="st1" d="M97.4,33.7l8.8,11.7v3l-2,5.8c3.3,0.8,4.9,1.8,4.9,3v15.6l-1,44.9c0,1.4,3.9,5.4,11.7,11.7l-1,1h-1l-2-2
		c0,6.5-2.3,10.8-6.8,12.7c-13-1.8-19.5-3.8-19.5-5.8v-2c0-1.3,1-2,3-2c-0.8-3-2.2-4.6-3.9-4.8l-1,0.9v-0.9l1-1l-1-1v-1
		c3.9-3.3,5.8-6.2,5.8-8.8v-6.9l2-2.9l-2-3V62l1-1v-1c-1.2,0-4.2-2.3-8.8-6.8C74.6,66.4,69.1,77.8,69.1,87.4v5.8l-2,2l1,1V107
		c0,6.8,2.3,12.6,6.8,17.6v1h-5.8v1l1,0.9v1l-2,3.9l1,1l-3,2l-5.8-1l-4.9,1v-2h-1l-4.8,3l-7.8-3c-3.8,4.5-9.4,6.8-16.7,6.8h-5.8
		c-11-0.7-16.6-4.3-16.6-10.8c7.8-5.6,11.7-9.5,11.7-11.7l0.9-13.6v-7.8l5.9-7.9c-3.9-0.8-5.9-1.8-5.9-2.9v-1l1-1l-1-1V60
		c-2.6,0-3.9-1.9-3.9-5.8c-2.4,0-5.9-2.3-10.8-6.8v-1l1,1h2c0.1-3.3,1.1-4.9,2.9-4.9h1c4.7,0,8.2,0.7,10.8,2l8.8-2l4.9,2
		c0-3.1,5.2-6.3,15.6-9.8l2,3l7.8-3v1c6.5,8.5,11.4,12.7,14.7,12.7l-1-1v-2h1l1,1h0.9c0-4.9,3.2-8.5,9.8-10.8l3,3l1-1l2,1.9l6.8-2.9
		l-1-1v-1l1-1L97.4,33.7L97.4,33.7z M30,90.3v1l-2,3l2,2v22.4l1-1h1c5.6,7.2,10.1,10.8,13.6,10.8l10.8-9.8l-1-1V107l-1-3.9
		c0.7-4.5,2.6-6.8,5.9-6.8l2-3l-1-1v-1l1-1v-1c-4.6-1.5-6.9-2.8-6.9-3.8V61l-6.8-7.8C36.2,61.2,30,73.5,30,90.3z"/>
	<path class="st1" d="M189,32.2c0.1,1.9,8,10.1,23.6,24.5v1c-1.4,0-2.1,1.7-2.1,5.1l-3.1,1l1,5.1c0,1.4-1,2.1-3.1,2.1v1l2.1,2.1
		c0-1.6,1.4-2.9,4.1-4c2,0.4,3.1,3.1,3.1,8.2v2l-1.1,1.1l1.1,1v1c0,2-3.4,3.8-10.2,5.1h-19.4l-37.9,1.1c0,1.8-1.7,3.9-5,6.1l-1.1,4
		v1.1c3.9,3.2,6.6,6.9,8.2,11.2l15.4,12.2l-1.1,1h11.2c3.1,0,6.9-2.4,11.2-7.1l18.4-17.3c6.1,0,9.2,2.7,9.2,8.2
		c0,5.3-4.4,12.8-13.3,22.5c-9.7,5.5-19.2,8.5-28.6,9.2l-1-1v-1.1l-1.1,1.1h-3.1l-2-2.1l1-1c-3.4,0-5.1-0.7-5.1-2.1l1.1-1.1
		l-2.1-3.1c-5.3,0-9.4,1.4-12.3,4.1l-12.2-10.2l4-5.1c-2.7,0-4-2.4-4-7.1h1l-1-1.1v-1l1-1v-1.1h-1l-3.1,2.1c-3.4,0-5.1-6.8-5.1-20.4
		c0-16.4,1.3-24.6,4-24.6l-1-3.1c0-2.8,1.7-4.1,5.1-4.1c0-5.5,7.2-12.6,21.5-21.5l11.2-3.1c7.8,0,12.9,1.4,15.3,4.1l3.1-4.1l1.1,1.1
		L189,32.2z M136.9,110.9v1.1l4,4h1.1l1-3.1c-2,0-3.1-1-3.1-3.1L136.9,110.9z M144,69c0.1,2.4,2.9,5.1,8.2,8.2l1.1-1H187l1,1
		c4.1-2.5,7.1-5.6,9.2-9.2c-5.5-10.9-13-16.4-22.5-16.4h-9.2C156.7,51.6,149.5,57.4,144,69z M207.4,96.6l1,1.1v1l-1,1h-1l-1.1-1v-1
		l1.1-1.1H207.4z M212.5,98.7l5.1,6.1l-1.1,1h-1l-5.1-6.1l1.1-1H212.5z"/>
	<path class="st1" d="M318.4,33.7l8.8,11.7v3l-2,5.8c3.3,0.8,4.9,1.8,4.9,3v15.6l-1,44.9c0,1.4,3.9,5.4,11.7,11.7l-1,1h-1l-2-2
		c0,6.5-2.3,10.8-6.8,12.7c-13-1.8-19.5-3.8-19.5-5.8v-2c0-1.3,1-2,3-2c-0.9-3-2.2-4.6-3.9-4.8l-1,0.9v-0.9l1-1l-1-1v-1
		c3.9-3.3,5.8-6.2,5.8-8.8v-6.9l2-2.9l-2-3V62l1-1v-1c-1.2,0-4.2-2.3-8.8-6.8c-11,13.2-16.6,24.6-16.6,34.2v5.8l-2,2l1,1V107
		c0,6.8,2.3,12.6,6.8,17.6v1h-5.8v1l1,0.9v1l-2,3.9l1,1l-3,2l-5.8-1l-4.9,1v-2h-1l-4.8,3l-7.8-3c-3.8,4.5-9.4,6.8-16.7,6.8h-5.8
		c-11-0.7-16.6-4.2-16.6-10.8c7.8-5.6,11.7-9.5,11.7-11.7l0.9-13.6v-7.8l5.9-7.9c-3.9-0.8-5.9-1.8-5.9-2.9v-1l1-1l-1-1V60
		c-2.6,0-3.9-1.9-3.9-5.8c-2.4,0-5.9-2.3-10.8-6.8v-1l1,1h2c0.1-3.3,1.1-4.9,2.9-4.9h1c4.7,0,8.2,0.7,10.8,2l8.8-2l4.9,2
		c0-3.1,5.2-6.3,15.6-9.8l2,3l7.8-3v1c6.5,8.5,11.4,12.7,14.7,12.7l-1-1v-2h1l1,1h0.9c0-4.9,3.2-8.5,9.8-10.8l3,3l1-1l2,1.9l6.8-2.9
		l-1-1v-1l1-1L318.4,33.7L318.4,33.7z M251.1,90.3v1l-2,3l2,2v22.4l1-1h1c5.6,7.2,10.1,10.8,13.6,10.8l10.8-9.8l-1-1V107l-1-3.9
		c0.7-4.5,2.6-6.8,5.9-6.8l2-3l-1-1v-1l1-1v-1c-4.6-1.5-6.9-2.8-6.9-3.8V61l-6.8-7.8C257.2,61.2,251.1,73.5,251.1,90.3z"/>
	<path class="st1" d="M385.7,33.1c3.9,0.7,5.9,1.6,5.9,3l9.8-2c9.8,2.6,16.3,6.2,19.6,10.8l-1,1c11.8,12.1,17.6,24.9,17.6,38.3
		c-3.1,21-7.7,35-13.7,42.2c-6,5.9-11.9,10.4-17.6,13.7l-1-1l1-1v-2h-1v2l-2-2h1l-1-3h-3v1l2,5.9l-1,1l-1-1h-2l-3,2h-1.9
		c-16.5-3.3-26.7-8.2-30.5-14.8l-1,1h-1c-4.5,0-9-11.1-13.7-33.3c4.6-2.7,6.9-4.6,6.9-5.8v-1l-1-1v-1l3-2l1.9,2l-1,1v1l1,1h1l3-2h1
		v2l-1,0.9c0,9.7,3.9,17.8,11.8,24.6c1.9,0,2.9,1.6,2.9,4.9l1-1h2c2.4,0,5,1.3,7.9,3.9h4.9l3.9-1l3.9,1c2,0,7.6-5.9,16.7-17.7l2-2h1
		l-1-1v-1l2-14.7c0-15.4-5.9-26.3-17.6-32.4l-9.8-2.9h-6.9c-6.6,0-13.8,7.2-21.6,21.5c-1.3,6.6-4.6,9.9-9.8,9.9c0,1.6-1.3,2.6-3.9,3
		c-2.6-1-3.9-2-3.9-3l2-2l-1-1v-2c0.5-10,7.7-22.1,21.6-36.3l-1-1v-1L385.7,33.1z M407.2,120.5v2h-1l1,1v1l-1,4.8h2l2-2
		c-1.3-1.5-2-3.8-2-6.8L407.2,120.5L407.2,120.5z M415,49.9v1.9l8.9,4.9l1-1v-1c-3.9-2.6-5.9-4.8-5.9-6.8h-2L415,49.9z"/>
	<path class="st1" d="M519.4,35.3l11.8,2l2-2c0,2,4.3,6.6,12.8,13.8v1h-2l1,1V58c0,8.6-3,14.5-8.9,17.8h-7.9l-7.9-7.9l-1,1v-1l1-1
		v-1c0-3-2.3-6.6-7-10.8v-1h-1c-15.1,11.8-22.7,23.3-22.7,34.5l-1,5.9l-1-1h-1l-3.9,1c-5.3,0-7.9-2.3-7.9-6.9v-5.9
		c0-16.4-2.3-24.7-6.9-24.7c0-1.3-1-2-3-2l-3,1c-11.2,0-16.8-3-16.8-8.9c0-5.1,4.3-8,12.8-8.9H470l1,1h1l3-3h2l3.9,3l1-1v-1
		l13.8,11.8h1l21.8-13.8L519.4,35.3L519.4,35.3z M481.8,99.4h2c0,2.2,2.3,3.6,6.9,3.9c0,8.3,2.3,14.3,6.9,17.8v1l4.9-1h7.9l1,1h1v-1
		l-1-1v-1h1l2,2l-1,1v1c3.3,0.1,5,1.1,5,3l-1.1,1v1h2.1v1c0,7.2-4.6,10.9-13.9,10.9h-22.7l-17.8,1l-10.9-1l-1,1
		c-3.3-3.6-4.9-6.2-4.9-7.9l-1,1h-1v-1l3.9-6.9v1c2.8-0.7,5.5-3,7.9-6.9c3,0.1,5.9,1.4,8.9,3.9h1c1.2-3.9,3.2-5.9,5.9-5.9v-3.9
		c0-7.9,2.3-11.9,6.9-11.9h2l-1-1L481.8,99.4L481.8,99.4z M471,123.1l3-1v-2L471,123.1z M471.9,56v1c1.4,2.6,3,3.9,4.9,3.9h1v-1
		c-2.6,0-3.9-1.3-3.9-3.9H471.9z M477.9,52l1,5.9h1l1-4.9l-1-1C479.8,52,477.9,52,477.9,52z M482.8,58.9v2l2-2v-2L482.8,58.9z"/>
	<path class="st1" d="M548.8,54.4l6.8,7.7l-1,0.9h-1l-6.7-7.7l1-0.9H548.8z M612.3,133.2l1,1v0.9c-9,28.9-20.9,43.3-35.6,43.3H571
		l-9.7-2.9l1-4.8h-1l-1,1h-0.9c-6.4-3.2-9.7-8-9.7-14.4v-5.8c5.8-8.4,11.9-12.5,18.2-12.5l1-0.9c4.5,3.2,6.7,7,6.7,11.5v4.7
		c3.9,0.9,5.8,3.2,5.8,6.8h1c1.6-0.5,7.7-6.9,18.2-19.2c1.2,0,3.5-1.9,6.7-5.8L612.3,133.2z M581.6,39.9c12.2,0,18.2,3.5,18.2,10.6
		L587.3,65l4.8,11.5l-1,3.8l2,1.9v1l-1,1L595,88v-2h1c1,0,3.5,5.8,7.7,17.3l4.8,2.9c3.8-3.2,5.7-7.1,5.7-11.5h1l-1-2.9
		c0.8-7.8,3.1-13.6,6.8-17.3l-1-0.9v-1l2.9-10.5c-7.7-5.6-11.5-10.1-11.5-13.5l10.5-7.7h12.5l3.8-1c5.6,2.6,11,4.2,16.4,4.8l1.9-1.9
		l2,1.9v6.7c0,5.8-5.8,8.7-17.3,8.7v1l-1,1c-3.8,0-7.9,10.6-12.4,31.7c-8.3,25.6-13.5,38.4-15.4,38.4c-1-2.6-3.3-3.9-6.7-3.9h-1v1
		l2.9,2.9l-1,3.9h-3.8c0-2.6-0.6-3.9-1.9-3.9l-2.9,2h-1v-4.8l-12.5-32.6l2-2l-3-8.7l-0.9,1h-1c-3.7-4.4-6.2-11.4-7.7-21.1
		c-3.4-4.5-7.6-6.8-12.5-6.8c-6.4,0-9.6-1-9.6-2.9v-5.7c0-4.7,1-7.3,2.9-7.7l1,0.9l0.9-0.9h24.1L581.6,39.9z M565.2,167.8v1h2l0.9-3
		h-0.9L565.2,167.8z M577.7,62.1h3.8l-2-2L577.7,62.1z M582.6,56.3v2.9l1.9,3l-1,0.9l1,1h1l4.8-6.7l-3.8-3.8
		C583.8,54.4,582.6,55.4,582.6,56.3z M608.5,47.6l1,1v2h-1l-2-2l1-1H608.5z"/>
	<path class="st1" d="M686.1,4h4.8c8.9,0,13.4,3.5,13.4,10.6v19.1l-1,0.9v1l-4.8-1l-2.9,1v-1l-6.6,2v-2.9c0-1.3,1-2,2.9-2v-0.9
		c-2.2,0-3.5-2.2-3.8-6.7l-1-1h-2.9c0,1.3,1.3,2,3.8,2V27l-2,1.9l-3.8-5.7l-1,1h-1l-7.6-1l-2.9,1l0.9-1v-0.9l-7.6-4.8
		c1.6-5.7,2.9-8.6,3.8-8.6l2.9,1.9c0-2.5,4.4-3.8,13.3-3.8L686.1,4z M720.5,38.4h6.7l2.9,2h2.9l2.9-2h7.7c11.6,8.7,17.9,16.4,19,23
		l-2.9,0.9c1,2.6,1.9,3.8,2.9,3.8l-1.9,3.8h2.9l2.9-1v1c1.3,2.5,2,6,2,10.4v13.4c0,18.1-8.3,32.7-24.8,44l-10.5,2.9h-5.7
		c-5.6,0-13.2-2.2-22.9-6.7c-3.6,3.8-7.8,5.7-12.4,5.7l-4.8-9.6c1-8.3,2.3-12.4,3.8-12.4l-1-1v-0.9l1-5.7c-1.2-2.5-1.9-6-1.9-10.6
		V84.3l1.9-2.9c-1.2,0-1.9-0.9-1.9-2.9l0.9-1l-0.9-4.7V46.1l1.9-2h4.7c0-3.2,0.7-4.7,2-4.7l0.9,1v0.9l-1.9,2h1.9l4.8-1
		c1.3,2.6,2.9,3.8,4.7,3.8C715.1,42.7,719.2,40.1,720.5,38.4z M705.2,80.4v18.1l-0.9,1c4.4,15.3,11.7,23,21.9,23
		c2.6,0.3,3.8,1.2,3.8,2.9c7.6,0,13.7-3.5,18.1-10.6c3.3,0,5.3-8.6,5.7-25.7l-1.9-12.4l2.9-2c0-1.4-3.2-4.9-9.6-10.4
		c0-2-2.2-4.3-6.7-6.7h-18.1C710.9,66.3,705.8,73.9,705.2,80.4z"/>
	<path class="st1" d="M815.5,33.1c3.9,0.7,5.9,1.6,5.9,3l9.8-2c9.8,2.6,16.3,6.2,19.6,10.8l-1,1c11.8,12.1,17.7,24.9,17.7,38.3
		c-3.1,21-7.7,35-13.7,42.2c-6,5.9-11.9,10.4-17.7,13.7l-1-1l1-1v-2h-1v2l-2-2h1l-1-3h-3v1l2,5.9l-1,1l-1-1h-2l-3,2h-1.9
		c-16.5-3.3-26.7-8.2-30.5-14.8l-1,1h-1c-4.5,0-9-11.1-13.7-33.3c4.6-2.7,6.9-4.6,6.9-5.8v-1l-1-1v-1l3-2l1.9,2l-1,1v1l1,1h1l3-2h1
		v2l-1,0.9c0,9.7,3.9,17.8,11.8,24.6c1.9,0,2.9,1.6,2.9,4.9l1-1h2c2.4,0,5,1.3,7.9,3.9h4.9l3.8-1l3.9,1c2,0,7.6-5.9,16.7-17.7l2-2h1
		l-1-1v-1l2-14.7c0-15.4-5.9-26.3-17.7-32.4l-9.8-2.9h-6.9c-6.6,0-13.8,7.2-21.6,21.5c-1.3,6.6-4.6,9.9-9.8,9.9c0,1.6-1.3,2.6-3.9,3
		c-2.6-1-3.9-2-3.9-3l2-2l-1-1v-2c0.5-10,7.7-22.1,21.6-36.3l-1-1v-1L815.5,33.1z M837.1,120.5v2h-1l1,1v1l-1,4.8h2l2-2
		c-1.3-1.5-2-3.8-2-6.8L837.1,120.5L837.1,120.5z M844.9,49.9v1.9l8.9,4.9l1-1v-1c-3.9-2.6-5.9-4.8-5.9-6.8h-2L844.9,49.9z"/>
	<path class="st1" d="M892.8,38.8l3.8,3.8h18.2l1,0.9l3.8-1.9c5.1,0,7.7,3.2,7.7,9.6v1c-5.1,5.4-7.7,8.9-7.7,10.5l11.5,9.7h1
		c5.3-6.4,9.5-9.7,12.5-9.7c-0.3-2.3-3.2-5.8-8.7-10.5l-1-3.8c1.3-3.8,2.6-5.7,3.8-5.7l1,0.9l2.9-2.9l5.8,3.8h14.4
		c2.3-1.9,6.4-2.9,12.4-2.9l1,1l-1,0.9v2c3.2,0,4.8,1.3,4.8,3.8c0,4.5-1.9,6.7-5.7,6.7c0,1.2-2.9,2.1-8.7,2.9l-21.1,25h-1l-2.9-2
		l-3,3.8c8.2,8.2,17.5,19.7,27.9,34.6c2.6,1,3.8,1.9,3.8,2.9l1-0.9h0.9l2,1.9l1-1h0.9l2,2l1-1h0.9l3,2l1.9-2
		c1.5,1.7,2.4,4.9,2.9,9.7c-2.2,4.5-5.7,6.7-10.5,6.7h-27.8c-7.1,0-10.7-2.9-10.7-8.7l8.7-7.7c-4.7-10.7-11.1-19.4-19.2-25.9
		l-13.4,8.7c-0.7,2.6-1.9,3.8-3.8,3.8v1.9h4.7l4.8-1v3l-3.8,6.7l6.7,8.7v0.9c0,7.1-3.2,10.6-9.6,10.6h-1c-24.3,0-36.5-1.6-36.5-4.8
		l-1-7.7c3.4-1.3,5.3-2.9,5.7-4.8h-1.9v-1.9l9.6-1l2,1.9c21.2-18.5,31.8-29.4,31.8-32.6c-4.4-12-12.8-23.2-25-33.6h-11.5l1,1V59h-1
		l-1.9-1.9l0.9-1v-1c-3.8,0-5.7-2.6-5.7-7.7l3.8-1.9l-1-4.8h1L892.8,38.8z M977.5,37.8l6.7,7.7l-1,1h-0.9l-6.8-7.7l1-1H977.5z
		 M983.2,120.5h1l6.7,6.7l-1.9,2h-1l1-1v-1l-5.8-5.7V120.5z"/>
</g>
</svg>
