<?xml version="1.0" encoding="utf-8"?>
<!-- Generator: Adobe Illustrator 26.0.0, SVG Export Plug-In . SVG Version: 6.00 Build 0)  -->
<svg version="1.1" id="Layer_1" xmlns="http://www.w3.org/2000/svg" xmlns:xlink="http://www.w3.org/1999/xlink" x="0px" y="0px"
	 viewBox="0 0 995 180" style="enable-background:new 0 0 995 180;" xml:space="preserve">
<style type="text/css">
	.st0{enable-background:new    ;}
	.st1{fill:#FFFFFF;}
</style>
<g class="st0">
	<path class="st1" d="M97.36,33.7l8.78,11.73v2.96l-1.97,5.82c3.29,0.85,4.93,1.84,4.93,2.96v15.58l-0.99,44.86
		c0,1.45,3.91,5.36,11.73,11.73l-0.99,0.99h-0.99l-1.97-1.97c0,6.51-2.27,10.75-6.8,12.72c-13.02-1.84-19.52-3.78-19.52-5.82v-1.97
		c0-1.31,0.99-1.97,2.96-1.97c-0.85-3.02-2.17-4.63-3.94-4.83l-0.99,0.89v-0.89l0.99-0.99l-0.99-0.99v-0.99
		c3.88-3.29,5.82-6.21,5.82-8.78v-6.9l1.97-2.86l-1.97-2.96V62l0.99-0.99v-0.99c-1.25,0-4.17-2.27-8.77-6.8
		C74.58,66.43,69.06,77.84,69.06,87.44v5.82l-1.97,1.97l0.99,0.99v10.75c0,6.77,2.27,12.62,6.8,17.55v0.99h-5.82v0.99l0.99,0.89
		v0.99l-1.97,3.94l0.99,0.99l-2.96,1.97l-5.82-0.99l-4.93,0.99v-1.97h-0.99l-4.83,2.96l-7.79-2.96c-3.81,4.54-9.37,6.8-16.66,6.8
		h-5.82C8.23,139.43,2.7,135.85,2.7,129.34c7.82-5.59,11.73-9.5,11.73-11.73L15.32,104v-7.79l5.92-7.89
		c-3.94-0.85-5.92-1.81-5.92-2.86v-0.99l0.99-0.99l-0.99-0.99V60.03c-2.56,0-3.85-1.94-3.85-5.82c-2.37,0-5.95-2.27-10.75-6.8v-0.99
		l0.99,0.99h1.97c0.13-3.29,1.08-4.93,2.86-4.93h0.99c4.67,0,8.25,0.66,10.75,1.97l8.77-1.97l4.93,1.97c0-3.09,5.19-6.34,15.58-9.76
		l1.97,2.96l7.79-2.96v0.99c6.51,8.48,11.4,12.72,14.69,12.72l-0.99-0.99v-1.97h0.99L73,46.42h0.89c0-4.86,3.25-8.45,9.76-10.75
		l2.96,2.96l0.99-0.99l1.97,1.87l6.8-2.86l-0.99-0.99v-0.99l0.99-0.99H97.36z M30.02,90.3v0.99l-1.97,2.96l1.97,1.97v22.38
		l0.99-0.99h0.99c5.59,7.17,10.12,10.75,13.61,10.75l10.75-9.76l-0.99-0.99v-10.65l-0.99-3.94c0.66-4.54,2.63-6.8,5.92-6.8
		l1.97-2.96l-0.99-0.99v-0.99l0.99-0.99v-0.99c-4.6-1.51-6.9-2.79-6.9-3.84V61.01l-6.8-7.79C36.19,61.18,30.02,73.53,30.02,90.3z"/>
	<path class="st1" d="M188.96,32.22c0.13,1.91,7.99,10.09,23.57,24.55v0.99c-1.38,0-2.07,1.71-2.07,5.13l-3.06,0.99l0.99,5.13
		c0,1.38-1.02,2.07-3.06,2.07v0.99l2.07,2.07c0-1.58,1.38-2.92,4.14-4.04c2.04,0.39,3.06,3.12,3.06,8.18v1.97l-1.08,1.08l1.08,0.99
		v0.99c0,2.04-3.42,3.75-10.25,5.13h-19.42l-37.86,1.08c0,1.84-1.68,3.88-5.03,6.11l-1.08,4.04v1.08c3.88,3.16,6.61,6.9,8.18,11.24
		l15.38,12.23l-1.08,0.99h11.24c3.15,0,6.9-2.37,11.24-7.1l18.44-17.35c6.11,0,9.17,2.73,9.17,8.18c0,5.32-4.44,12.82-13.31,22.48
		c-9.66,5.46-19.19,8.51-28.59,9.17l-0.99-0.99v-1.08l-1.08,1.08h-3.06l-1.97-2.07l0.99-0.99c-3.42,0-5.13-0.69-5.13-2.07l1.08-1.08
		l-2.07-3.06c-5.26,0-9.37,1.38-12.32,4.14l-12.23-10.25l4.04-5.13c-2.7,0-4.04-2.37-4.04-7.1h0.99l-0.99-1.08v-0.99l0.99-0.99
		v-1.08h-0.99l-3.06,2.07c-3.42,0-5.13-6.8-5.13-20.41c0-16.37,1.35-24.55,4.04-24.55l-0.99-3.06c0-2.76,1.71-4.14,5.13-4.14
		c0-5.46,7.16-12.62,21.49-21.5l11.24-3.06c7.76,0,12.85,1.38,15.28,4.14l3.06-4.14l1.08,1.08L188.96,32.22z M136.9,110.9v1.08
		l4.04,4.04h1.08l0.99-3.06c-2.04,0-3.06-1.02-3.06-3.06L136.9,110.9z M144,69c0.13,2.37,2.86,5.09,8.18,8.18l1.08-0.99h33.72
		l0.99,0.99c4.08-2.5,7.13-5.55,9.17-9.17c-5.52-10.91-13.02-16.37-22.48-16.37h-9.17C156.68,51.65,149.52,57.43,144,69z
		 M207.39,96.61l0.99,1.08v0.99l-0.99,0.99h-0.99l-1.08-0.99v-0.99l1.08-1.08H207.39z M212.52,98.68l5.13,6.11l-1.08,0.99h-0.99
		l-5.13-6.11l1.08-0.99H212.52z"/>
	<path class="st1" d="M318.42,33.7l8.78,11.73v2.96l-1.97,5.82c3.29,0.85,4.93,1.84,4.93,2.96v15.58l-0.99,44.86
		c0,1.45,3.91,5.36,11.73,11.73l-0.99,0.99h-0.99l-1.97-1.97c0,6.51-2.27,10.75-6.8,12.72c-13.02-1.84-19.52-3.78-19.52-5.82v-1.97
		c0-1.31,0.99-1.97,2.96-1.97c-0.85-3.02-2.17-4.63-3.94-4.83l-0.99,0.89v-0.89l0.99-0.99l-0.99-0.99v-0.99
		c3.88-3.29,5.82-6.21,5.82-8.78v-6.9l1.97-2.86l-1.97-2.96V62l0.99-0.99v-0.99c-1.25,0-4.17-2.27-8.77-6.8
		c-11.04,13.21-16.56,24.62-16.56,34.21v5.82l-1.97,1.97l0.99,0.99v10.75c0,6.77,2.27,12.62,6.8,17.55v0.99h-5.82v0.99l0.99,0.89
		v0.99l-1.97,3.94l0.99,0.99l-2.96,1.97l-5.82-0.99l-4.93,0.99v-1.97h-0.99l-4.83,2.96l-7.79-2.96c-3.81,4.54-9.37,6.8-16.66,6.8
		h-5.82c-11.04-0.66-16.56-4.24-16.56-10.75c7.82-5.59,11.73-9.5,11.73-11.73l0.89-13.61v-7.79l5.92-7.89
		c-3.94-0.85-5.92-1.81-5.92-2.86v-0.99l0.99-0.99l-0.99-0.99V60.03c-2.56,0-3.85-1.94-3.85-5.82c-2.37,0-5.95-2.27-10.75-6.8v-0.99
		l0.99,0.99h1.97c0.13-3.29,1.08-4.93,2.86-4.93h0.99c4.67,0,8.25,0.66,10.75,1.97l8.77-1.97l4.93,1.97c0-3.09,5.19-6.34,15.58-9.76
		l1.97,2.96l7.79-2.96v0.99c6.51,8.48,11.4,12.72,14.69,12.72l-0.99-0.99v-1.97h0.99l0.99,0.99h0.89c0-4.86,3.25-8.45,9.76-10.75
		l2.96,2.96l0.99-0.99l1.97,1.87l6.8-2.86l-0.99-0.99v-0.99l0.99-0.99H318.42z M251.07,90.3v0.99l-1.97,2.96l1.97,1.97v22.38
		l0.99-0.99h0.99c5.59,7.17,10.12,10.75,13.61,10.75l10.75-9.76l-0.99-0.99v-10.65l-0.99-3.94c0.66-4.54,2.63-6.8,5.92-6.8
		l1.97-2.96l-0.99-0.99v-0.99l0.99-0.99v-0.99c-4.6-1.51-6.9-2.79-6.9-3.84V61.01l-6.8-7.79C257.25,61.18,251.07,73.53,251.07,90.3z
		"/>
	<path class="st1" d="M385.66,33.11c3.94,0.66,5.92,1.64,5.92,2.96l9.76-1.97c9.79,2.63,16.33,6.25,19.62,10.85l-0.99,0.99
		c11.77,12.09,17.65,24.85,17.65,38.26c-3.09,20.97-7.66,35.04-13.71,42.2c-6.05,5.85-11.93,10.42-17.65,13.71l-0.99-0.99l0.99-0.99
		v-1.97h-0.99v1.97l-1.97-1.97h0.99l-0.99-2.96h-2.96v0.99l1.97,5.92l-0.99,0.99l-0.99-0.99h-1.97l-2.96,1.97h-1.87
		c-16.5-3.29-26.66-8.22-30.47-14.79l-0.99,0.99h-0.99c-4.47,0-9.04-11.11-13.71-33.33c4.6-2.69,6.9-4.63,6.9-5.82v-0.99l-0.99-0.99
		v-0.99l2.96-1.97l1.87,1.97l-0.99,0.99v0.99l0.99,0.99h0.99l2.96-1.97h0.99v1.97L362.1,90c0,9.66,3.94,17.85,11.83,24.55
		c1.91,0,2.86,1.64,2.86,4.93l0.99-0.99h1.97c2.37,0,4.99,1.32,7.89,3.94h4.93l3.85-0.99l3.94,0.99c2.04,0,7.59-5.88,16.66-17.65
		l1.97-1.97h0.99l-0.99-0.99v-0.99l1.97-14.69c0-15.45-5.88-26.26-17.65-32.44l-9.76-2.86h-6.9c-6.64,0-13.84,7.17-21.59,21.49
		c-1.32,6.57-4.57,9.86-9.76,9.86c0,1.64-1.32,2.63-3.94,2.96c-2.63-0.99-3.94-1.97-3.94-2.96l1.97-1.97l-0.99-0.99v-1.97
		c0.53-9.99,7.72-22.09,21.59-36.28L369,40.01v-0.99L385.66,33.11z M407.25,120.47v1.97h-0.99l0.99,0.99v0.99l-0.99,4.83h1.97
		l1.97-1.97c-1.32-1.51-1.97-3.78-1.97-6.8H407.25z M415.04,49.87v1.87l8.87,4.93l0.99-0.99V54.7c-3.94-2.56-5.92-4.83-5.92-6.8
		h-1.97L415.04,49.87z"/>
	<path class="st1" d="M519.36,35.28l11.83,1.97l1.97-1.97c0,2.04,4.27,6.64,12.82,13.8v0.99h-1.97l0.99,0.99v6.9
		c0,8.61-2.96,14.53-8.87,17.75h-7.89l-7.89-7.89l-0.99,0.99v-0.99l0.99-0.99v-0.99c0-2.96-2.33-6.57-7-10.85v-0.99h-0.99
		c-15.12,11.77-22.68,23.27-22.68,34.51l-0.99,5.92l-0.99-0.99h-0.99l-3.94,0.99c-5.26,0-7.89-2.3-7.89-6.9v-5.92
		c0-16.43-2.3-24.65-6.9-24.65c0-1.31-0.99-1.97-2.96-1.97l-2.96,0.99c-11.18,0-16.76-2.96-16.76-8.87c0-5.06,4.27-8.02,12.82-8.87
		h11.83l0.99,0.99h0.99l2.96-2.96h1.97l3.94,2.96l0.99-0.99v-0.99l13.8,11.83h0.99l21.79-13.8H519.36z M481.79,99.37h1.97
		c0,2.24,2.3,3.55,6.9,3.94c0,8.35,2.3,14.3,6.9,17.85v0.99l4.93-0.99h7.89l0.99,0.99h0.99v-0.99l-0.99-0.99v-0.99h0.99l1.97,1.97
		l-0.99,0.99v0.99c3.35,0.13,5.03,1.12,5.03,2.96l-1.08,0.99v0.99h2.07v0.99c0,7.23-4.63,10.85-13.9,10.85h-22.68l-17.75,0.99
		l-10.85-0.99l-0.99,0.99c-3.29-3.61-4.93-6.24-4.93-7.89l-0.99,0.99h-0.99v-0.99l3.94-6.9v0.99c2.83-0.66,5.46-2.96,7.89-6.9
		c2.96,0.07,5.92,1.38,8.87,3.94h0.99c1.18-3.94,3.16-5.92,5.92-5.92v-3.94c0-7.95,2.3-11.93,6.9-11.93h1.97l-0.99-0.99V99.37z
		 M470.95,123.13l2.96-0.99v-1.97L470.95,123.13z M471.93,55.98v0.99c1.38,2.63,3.02,3.94,4.93,3.94h0.99v-0.99
		c-2.63,0-3.94-1.31-3.94-3.94H471.93z M477.85,52.04l0.99,5.92h0.99l0.99-4.93l-0.99-0.99H477.85z M482.78,58.94v1.97l1.97-1.97
		v-1.97L482.78,58.94z"/>
	<path class="st1" d="M548.84,54.41l6.8,7.69l-0.99,0.89h-0.99l-6.71-7.69l0.99-0.89H548.84z M612.34,133.19l0.99,0.99v0.89
		c-9.01,28.86-20.87,43.29-35.59,43.29h-6.7l-9.66-2.86l0.99-4.83h-0.99l-0.99,0.99h-0.89c-6.44-3.22-9.66-8.02-9.66-14.4v-5.82
		c5.85-8.35,11.93-12.52,18.24-12.52l0.99-0.89c4.47,3.16,6.7,7,6.7,11.54v4.73c3.88,0.92,5.82,3.19,5.82,6.8h0.99
		c1.64-0.46,7.72-6.87,18.24-19.23c1.25,0,3.48-1.94,6.71-5.82L612.34,133.19z M581.58,39.91c12.16,0,18.24,3.55,18.24,10.65
		l-12.52,14.4l4.83,11.54l-0.99,3.85l1.97,1.87v0.99l-0.99,0.99l2.86,3.85v-1.97h0.99c0.99,0,3.55,5.79,7.69,17.35l4.83,2.86
		c3.81-3.22,5.72-7.06,5.72-11.54h0.99l-0.99-2.86c0.79-7.82,3.06-13.61,6.8-17.35l-0.99-0.89v-0.99l2.86-10.55
		c-7.69-5.59-11.54-10.09-11.54-13.51l10.55-7.69h12.52l3.85-0.99c5.59,2.56,11.04,4.17,16.37,4.83l1.87-1.87l1.97,1.87v6.71
		c0,5.79-5.79,8.68-17.35,8.68v0.99l-0.99,0.99c-3.75,0-7.89,10.55-12.42,31.65c-8.35,25.64-13.48,38.45-15.38,38.45
		c-1.05-2.56-3.29-3.85-6.71-3.85h-0.99v0.99l2.86,2.86l-0.99,3.85h-3.84c0-2.56-0.63-3.85-1.87-3.85l-2.86,1.97h-0.99v-4.83
		l-12.52-32.64l1.97-1.97l-2.96-8.68l-0.89,0.99h-0.99c-3.68-4.4-6.25-11.44-7.69-21.1c-3.42-4.54-7.59-6.8-12.52-6.8
		c-6.38,0-9.56-0.95-9.56-2.86v-5.72c0-4.73,0.95-7.3,2.86-7.69l0.99,0.89l0.89-0.89h24.06L581.58,39.91z M565.21,167.79v0.99h1.97
		l0.89-2.96h-0.89L565.21,167.79z M577.73,62.1h3.85l-1.97-1.97L577.73,62.1z M582.56,56.28v2.86l1.87,2.96l-0.99,0.89l0.99,0.99
		h0.99l4.83-6.7l-3.85-3.85C583.84,54.41,582.56,55.36,582.56,56.28z M608.49,47.6l0.99,0.99v1.97h-0.99l-1.97-1.97l0.99-0.99
		H608.49z"/>
	<path class="st1" d="M686.09,4.02h4.83c8.94,0,13.41,3.52,13.41,10.55V33.7l-0.99,0.89v0.99l-4.83-0.99l-2.86,0.99v-0.99
		l-6.61,1.97V33.7c0-1.31,0.95-1.97,2.86-1.97v-0.89c-2.17,0-3.45-2.23-3.85-6.7l-0.99-0.99h-2.86c0,1.32,1.28,1.97,3.85,1.97V27
		l-1.97,1.87l-3.75-5.72l-0.99,0.99h-0.99l-7.59-0.99l-2.86,0.99l0.89-0.99v-0.89l-7.59-4.83c1.58-5.72,2.86-8.58,3.85-8.58
		l2.86,1.87c0-2.5,4.44-3.75,13.31-3.75L686.09,4.02z M720.5,38.43h6.71l2.86,1.97h2.86l2.86-1.97h7.69
		c11.57,8.74,17.91,16.4,19.03,22.97l-2.86,0.89c0.99,2.56,1.94,3.85,2.86,3.85l-1.87,3.84h2.86l2.86-0.99v0.99
		c1.31,2.5,1.97,5.98,1.97,10.45v13.41c0,18.08-8.28,32.73-24.85,43.97l-10.55,2.86h-5.72c-5.59,0-13.21-2.23-22.88-6.71
		c-3.62,3.81-7.76,5.72-12.42,5.72l-4.83-9.56c0.99-8.28,2.27-12.42,3.85-12.42l-0.99-0.99v-0.89l0.99-5.72
		c-1.25-2.5-1.87-6.01-1.87-10.55V84.28l1.87-2.86c-1.25,0-1.87-0.95-1.87-2.86l0.89-0.99l-0.89-4.73V46.12l1.87-1.97h4.73
		c0-3.15,0.66-4.73,1.97-4.73l0.89,0.99v0.89l-1.87,1.97h1.87l4.83-0.99c1.31,2.56,2.89,3.85,4.73,3.85
		C715.11,42.71,719.25,40.14,720.5,38.43z M705.22,80.44v18.14l-0.89,0.99c4.4,15.32,11.7,22.97,21.89,22.97
		c2.56,0.26,3.85,1.22,3.85,2.86c7.62,0,13.67-3.52,18.14-10.55c3.35,0,5.26-8.58,5.72-25.73l-1.87-12.42l2.86-1.97
		c0-1.38-3.19-4.86-9.56-10.45c0-2.04-2.24-4.27-6.71-6.7H720.5C710.9,66.3,705.81,73.93,705.22,80.44z"/>
	<path class="st1" d="M815.55,33.11c3.94,0.66,5.92,1.64,5.92,2.96l9.76-1.97c9.79,2.63,16.33,6.25,19.62,10.85l-0.99,0.99
		c11.77,12.09,17.65,24.85,17.65,38.26c-3.09,20.97-7.66,35.04-13.71,42.2c-6.05,5.85-11.93,10.42-17.65,13.71l-0.99-0.99l0.99-0.99
		v-1.97h-0.99v1.97l-1.97-1.97h0.99l-0.99-2.96h-2.96v0.99l1.97,5.92l-0.99,0.99l-0.99-0.99h-1.97l-2.96,1.97h-1.87
		c-16.5-3.29-26.66-8.22-30.47-14.79l-0.99,0.99H791c-4.47,0-9.04-11.11-13.71-33.33c4.6-2.69,6.9-4.63,6.9-5.82v-0.99l-0.99-0.99
		v-0.99l2.96-1.97l1.87,1.97l-0.99,0.99v0.99l0.99,0.99h0.99l2.96-1.97h0.99v1.97L791.98,90c0,9.66,3.94,17.85,11.83,24.55
		c1.91,0,2.86,1.64,2.86,4.93l0.99-0.99h1.97c2.37,0,4.99,1.32,7.89,3.94h4.93l3.85-0.99l3.94,0.99c2.04,0,7.59-5.88,16.66-17.65
		l1.97-1.97h0.99l-0.99-0.99v-0.99l1.97-14.69c0-15.45-5.88-26.26-17.65-32.44l-9.76-2.86h-6.9c-6.64,0-13.84,7.17-21.59,21.49
		c-1.32,6.57-4.57,9.86-9.76,9.86c0,1.64-1.32,2.63-3.94,2.96c-2.63-0.99-3.94-1.97-3.94-2.96l1.97-1.97l-0.99-0.99v-1.97
		C778.8,67.29,786,55.19,799.87,41l-0.99-0.99v-0.99L815.55,33.11z M837.14,120.47v1.97h-0.99l0.99,0.99v0.99l-0.99,4.83h1.97
		l1.97-1.97c-1.32-1.51-1.97-3.78-1.97-6.8H837.14z M844.93,49.87v1.87l8.87,4.93l0.99-0.99V54.7c-3.94-2.56-5.92-4.83-5.92-6.8
		h-1.97L844.93,49.87z"/>
	<path class="st1" d="M892.85,38.83l3.85,3.85h18.24l0.99,0.89l3.84-1.87c5.13,0,7.69,3.19,7.69,9.56v0.99
		c-5.13,5.39-7.69,8.91-7.69,10.55l11.54,9.66h0.99c5.32-6.44,9.5-9.66,12.52-9.66c-0.26-2.3-3.16-5.82-8.68-10.55l-0.99-3.85
		c1.31-3.81,2.6-5.72,3.85-5.72l0.99,0.89l2.86-2.86l5.82,3.84h14.39c2.3-1.91,6.44-2.86,12.42-2.86l0.99,0.99l-0.99,0.89v1.97
		c3.22,0,4.83,1.28,4.83,3.85c0,4.47-1.91,6.7-5.72,6.7c0,1.18-2.89,2.14-8.68,2.86l-21.1,25.04h-0.99l-2.86-1.97l-2.96,3.85
		c8.15,8.15,17.45,19.69,27.9,34.61c2.56,0.99,3.85,1.94,3.85,2.86l0.99-0.89h0.89l1.97,1.87l0.99-0.99h0.89l1.97,1.97l0.99-0.99
		h0.89l2.96,1.97l1.88-1.97c1.45,1.71,2.4,4.93,2.86,9.66c-2.17,4.47-5.69,6.71-10.55,6.71h-27.8c-7.1,0-10.65-2.89-10.65-8.68
		l8.68-7.69c-4.73-10.71-11.14-19.36-19.23-25.93l-13.41,8.68c-0.66,2.56-1.94,3.85-3.85,3.85v1.87h4.73l4.83-0.99v2.96l-3.84,6.71
		l6.7,8.68v0.89c0,7.1-3.19,10.65-9.56,10.65h-0.99c-24.32,0-36.48-1.61-36.48-4.83l-0.99-7.69c3.42-1.31,5.32-2.92,5.72-4.83h-1.87
		v-1.87l9.56-0.99l1.97,1.87c21.17-18.54,31.75-29.41,31.75-32.64c-4.41-12.03-12.75-23.24-25.04-33.62h-11.54l0.99,0.99v0.89h-0.99
		l-1.87-1.87l0.89-0.99V55.1c-3.81,0-5.72-2.56-5.72-7.69l3.85-1.87l-0.99-4.83h0.99L892.85,38.83z M977.45,37.84l6.71,7.69
		l-0.99,0.99h-0.89l-6.8-7.69l0.99-0.99H977.45z M983.17,120.47h0.99l6.7,6.71l-1.87,1.97H988l0.99-0.99v-0.99l-5.82-5.72V120.47z"
		/>
</g>
</svg>
