<?xml version="1.0" encoding="utf-8"?>
<!-- Generator: Adobe Illustrator 26.0.0, SVG Export Plug-In . SVG Version: 6.00 Build 0)  -->
<svg version="1.1" id="Layer_1" xmlns="http://www.w3.org/2000/svg" xmlns:xlink="http://www.w3.org/1999/xlink" x="0px" y="0px"
	 viewBox="0 0 300 300" style="enable-background:new 0 0 300 300;" xml:space="preserve">
<style type="text/css">
	.st0{fill:#FFFFFF;}
	.st1{fill:#666820;}
</style>
<rect class="st0" width="299.54" height="302.29"/>
<path class="st1" d="M210.89,159.31c-0.87,3.48-1.74,6.63-2.61,9.44c-0.87,2.4-1.95,4.83-3.27,7.35c-1.32,2.49-2.73,4.41-4.26,5.7
	c-1.98,1.53-3.33,3.15-4.11,4.89c-0.75,1.74-1.41,3.51-1.95,5.37s-1.14,3.75-1.8,5.7s-1.74,3.9-3.27,5.88
	c-5.01,6.54-8.78,12.83-11.27,18.92c-2.52,6.09-4.26,11.93-5.25,17.6s-1.26,11.24-0.81,16.79c0.45,5.55,1.32,10.91,2.61,16.13
	c0.87,3.9,2.19,7.98,3.93,12.23c1.74,4.23,4.32,8.57,7.68,13.04c3.39,4.47,7.71,8.78,12.92,13.04c5.25,4.23,11.78,8.3,19.64,12.2
	c-5.25,1.08-11.33,2.07-18.32,2.94c-5.88,0.66-13.16,1.23-21.77,1.77c-8.63,0.54-18.5,0.81-29.62,0.81
	c-5.67,0-12.26-0.21-19.79-0.66c-7.53-0.45-15.26-0.99-23.24-1.65s-15.8-1.41-23.57-2.28c-7.74-0.87-14.84-1.77-21.26-2.76
	c-6.45-0.99-11.9-2.01-16.37-3.12c-4.47-1.08-7.26-2.07-8.33-2.94c-1.98-1.74-3.48-6.57-4.59-14.51
	c-1.08-7.95-0.75-18.32,0.99-31.12c1.08-7.17,3.99-12.65,8.66-16.46c4.68-3.81,10.19-6.81,16.52-8.96
	c6.33-2.16,12.92-4.17,19.79-6.03c6.87-1.83,12.92-4.41,18.17-7.65c4.14-2.61,7.32-5.04,9.47-7.32c2.19-2.28,3.72-4.62,4.59-7.02
	c0.87-2.4,1.32-4.89,1.32-7.5s-0.12-5.43-0.33-8.48c-0.45-4.56-2.01-8.16-4.74-10.76s-5.61-5.22-8.66-7.83
	c-1.74-1.29-3.27-3.27-4.59-5.88s-2.4-5.1-3.27-7.5c-1.08-2.82-1.95-5.97-2.61-9.44c-1.53-0.42-2.94-1.08-4.26-1.95
	c-1.08-0.87-2.28-2.16-3.6-3.9c-1.32-1.74-2.52-4.35-3.6-7.83c-1.08-3.27-1.47-6.3-1.14-9.11c0.33-2.82,0.93-5.22,1.8-7.17
	c0.87-2.4,2.07-4.47,3.6-6.21c0-7.38,0.45-14.78,1.32-22.16c0.87-6.3,2.25-13.04,4.08-20.21c1.86-7.17,4.86-13.58,8.99-19.22
	c3.93-5.43,8.13-9.89,12.59-13.37c4.47-3.42,9.11-6.15,13.91-8.1s9.59-3.3,14.39-4.08c4.84-0.71,9.42-1.1,13.77-1.1
	c5.67,0,11.12,0.66,16.37,1.95c5.25,1.32,10.07,3.06,14.57,5.22c4.47,2.16,8.45,4.62,11.93,7.35c3.48,2.73,6.33,5.49,8.51,8.3
	c5.01,6.3,8.66,13.25,10.94,20.87c2.28,7.62,3.99,14.78,5.07,21.5c1.08,7.83,1.53,15.65,1.32,23.48c1.32,1.08,2.4,2.4,3.27,3.9
	c0.87,1.32,1.53,3.03,1.95,5.22c0.45,2.16,0.45,4.89,0,8.16c-0.45,4.14-1.32,7.38-2.61,9.77c-1.32,2.4-2.73,4.23-4.26,5.55
	C214.7,157.61,212.87,158.69,210.89,159.31L210.89,159.31z"/>
<path class="st1" d="M111.29,159.17c0.72,3.48,1.43,6.63,2.15,9.44c0.72,2.4,1.61,4.83,2.69,7.35c1.09,2.49,2.25,4.41,3.51,5.7
	c1.63,1.53,2.74,3.15,3.38,4.89c0.62,1.74,1.16,3.51,1.61,5.37c0.44,1.86,0.94,3.75,1.48,5.7c0.54,1.95,1.43,3.9,2.69,5.88
	c4.13,6.54,7.23,12.83,9.28,18.92c2.08,6.09,3.51,11.93,4.32,17.6s1.04,11.24,0.67,16.79c-0.37,5.55-1.09,10.91-2.15,16.13
	c-0.72,3.9-1.8,7.98-3.24,12.23c-1.43,4.23-3.56,8.57-6.32,13.04c-2.79,4.47-6.35,8.78-10.64,13.04c-4.32,4.23-9.7,8.3-16.17,12.2
	c4.32,1.08,9.33,2.07,15.09,2.94c4.84,0.66,10.84,1.23,17.93,1.77c7.11,0.54,15.24,0.81,24.39,0.81c4.67,0,10.1-0.21,16.3-0.66
	c6.2-0.45,12.57-0.99,19.14-1.65c6.57-0.66,13.01-1.41,19.41-2.28c6.37-0.87,12.22-1.77,17.51-2.76c5.31-0.99,9.8-2.01,13.48-3.12
	c3.68-1.08,5.98-2.07,6.86-2.94c1.63-1.74,2.87-6.57,3.78-14.51c0.89-7.95,0.62-18.32-0.82-31.12c-0.89-7.17-3.29-12.65-7.13-16.46
	c-3.85-3.81-8.39-6.81-13.61-8.96c-5.21-2.16-10.64-4.17-16.3-6.03c-5.66-1.83-10.64-4.41-14.96-7.65c-3.41-2.61-6.03-5.04-7.8-7.32
	c-1.8-2.28-3.06-4.62-3.78-7.02c-0.72-2.4-1.09-4.89-1.09-7.5s0.1-5.43,0.27-8.48c0.37-4.56,1.66-8.16,3.9-10.76
	s4.62-5.22,7.13-7.83c1.43-1.29,2.69-3.27,3.78-5.88s1.98-5.1,2.69-7.5c0.89-2.82,1.61-5.97,2.15-9.44
	c1.26-0.42,2.42-1.08,3.51-1.95c0.89-0.87,1.88-2.16,2.96-3.9c1.09-1.74,2.08-4.35,2.96-7.83c0.89-3.27,1.21-6.3,0.94-9.11
	c-0.27-2.82-0.77-5.22-1.48-7.17c-0.72-2.4-1.7-4.47-2.96-6.21c0-7.38-0.37-14.78-1.09-22.16c-0.72-6.3-1.85-13.04-3.36-20.21
	c-1.53-7.17-4-13.58-7.4-19.22c-3.24-5.43-6.7-9.89-10.37-13.37c-3.68-3.42-7.5-6.15-11.46-8.1c-3.95-1.95-7.9-3.3-11.85-4.08
	c-3.99-0.71-18.13-0.93-21.71-0.93c-4.67,0,1.21,0.49-3.11,1.78c-4.32,1.32-8.29,3.06-12,5.22c-3.68,2.16-6.96,4.62-9.83,7.35
	c-2.87,2.73-5.21,5.49-7.01,8.3c-4.13,6.3-7.13,13.25-9.01,20.87c-1.88,7.62-3.29,14.78-4.18,21.5c-0.89,7.83-1.26,15.65-1.09,23.48
	c-1.09,1.08-1.98,2.4-2.69,3.9c-0.72,1.32-1.26,3.03-1.61,5.22c-0.37,2.16-0.37,4.89,0,8.16c0.37,4.14,1.09,7.38,2.15,9.77
	c1.09,2.4,2.25,4.23,3.51,5.55C108.15,157.47,109.66,158.55,111.29,159.17L111.29,159.17z"/>
</svg>
