<?xml version="1.0" encoding="utf-8"?>
<!-- Generator: Adobe Illustrator 26.0.0, SVG Export Plug-In . SVG Version: 6.00 Build 0)  -->
<svg version="1.1" id="Layer_1" xmlns="http://www.w3.org/2000/svg" xmlns:xlink="http://www.w3.org/1999/xlink" x="0px" y="0px"
	 viewBox="0 0 300 300" style="enable-background:new 0 0 300 300;" xml:space="preserve">
<style type="text/css">
	.st0{fill:#666720;}
	.st1{fill:#7ABB50;}
	.st2{fill:#FFFFFF;}
</style>
<path class="st0" d="M182.75,127.48c-0.87,3.48-1.74,6.63-2.61,9.44c-0.87,2.4-1.95,4.83-3.27,7.35c-1.32,2.49-2.73,4.41-4.26,5.7
	c-1.98,1.53-3.33,3.15-4.11,4.89c-0.75,1.74-1.41,3.51-1.95,5.37s-1.14,3.75-1.8,5.7s-1.74,3.9-3.27,5.88
	c-5.01,6.54-8.78,12.83-11.27,18.92c-2.52,6.09-4.26,11.93-5.25,17.6s-1.26,11.24-0.81,16.79s1.32,10.91,2.61,16.13
	c0.87,3.9,2.19,7.98,3.93,12.23c1.74,4.23,4.32,8.57,7.68,13.04c3.39,4.47,7.71,8.78,12.92,13.04c5.25,4.23,11.78,8.3,19.64,12.2
	c-5.25,1.08-11.33,2.07-18.32,2.94c-5.88,0.66-13.16,1.23-21.77,1.77c-8.63,0.54-18.5,0.81-29.62,0.81
	c-5.67,0-12.26-0.21-19.79-0.66s-15.26-0.99-23.24-1.65s-15.8-1.41-23.57-2.28c-7.74-0.87-14.84-1.77-21.26-2.76
	c-6.45-0.99-11.9-2.01-16.37-3.12c-4.47-1.08-7.26-2.07-8.33-2.94c-1.98-1.74-3.48-6.57-4.59-14.51
	c-1.08-7.95-0.75-18.32,0.99-31.12c1.08-7.17,3.99-12.65,8.66-16.46c4.68-3.81,10.19-6.81,16.52-8.96
	c6.33-2.16,12.92-4.17,19.79-6.03c6.87-1.83,12.92-4.41,18.17-7.65c4.14-2.61,7.32-5.04,9.47-7.32c2.19-2.28,3.72-4.62,4.59-7.02
	c0.87-2.4,1.32-4.89,1.32-7.5s-0.12-5.43-0.33-8.48c-0.45-4.56-2.01-8.16-4.74-10.76s-5.61-5.22-8.66-7.83
	c-1.74-1.29-3.27-3.27-4.59-5.88s-2.4-5.1-3.27-7.5c-1.08-2.82-1.95-5.97-2.61-9.44c-1.53-0.42-2.94-1.08-4.26-1.95
	c-1.08-0.87-2.28-2.16-3.6-3.9s-2.52-4.35-3.6-7.83c-1.08-3.27-1.47-6.3-1.14-9.11c0.33-2.82,0.93-5.22,1.8-7.17
	c0.87-2.4,2.07-4.47,3.6-6.21c0-7.38,0.45-14.78,1.32-22.16c0.87-6.3,2.25-13.04,4.08-20.21c1.86-7.17,4.86-13.58,8.99-19.22
	c3.93-5.43,8.13-9.89,12.59-13.37c4.47-3.42,9.11-6.15,13.91-8.1s9.59-3.3,14.39-4.08c4.84-0.71,9.42-1.1,13.77-1.1
	c5.67,0,11.12,0.66,16.37,1.95c5.25,1.32,10.07,3.06,14.57,5.22c4.47,2.16,8.45,4.62,11.93,7.35s6.33,5.49,8.51,8.3
	c5.01,6.3,8.66,13.25,10.94,20.87s3.99,14.78,5.07,21.5c1.08,7.83,1.53,15.65,1.32,23.48c1.32,1.08,2.4,2.4,3.27,3.9
	c0.87,1.32,1.53,3.03,1.95,5.22c0.45,2.16,0.45,4.89,0,8.16c-0.45,4.14-1.32,7.38-2.61,9.77c-1.32,2.4-2.73,4.23-4.26,5.55
	C186.56,125.78,184.73,126.86,182.75,127.48L182.75,127.48z"/>
<g>
	<path class="st1" d="M228.17,285.73c-9.24,0-17.96-1.75-26.21-5.25c-8.24-3.5-15.43-8.33-21.59-14.43
		c-6.16-6.13-10.99-13.28-14.49-21.5c-3.5-8.21-5.28-16.91-5.28-26.11c0-9.18,1.75-17.87,5.28-26.08
		c3.5-8.21,8.36-15.31,14.49-21.31c6.16-6.01,13.34-10.78,21.59-14.28c8.24-3.5,16.97-5.25,26.21-5.25s17.96,1.75,26.21,5.25
		c8.24,3.5,15.37,8.24,21.41,14.28c6.04,6.01,10.81,13.13,14.34,21.31c3.5,8.21,5.28,16.91,5.28,26.08c0,9.21-1.75,17.9-5.28,26.11
		c-3.5,8.21-8.3,15.37-14.34,21.5s-13.19,10.93-21.41,14.43C246.11,283.98,237.38,285.73,228.17,285.73L228.17,285.73z"/>
</g>
<path class="st2" d="M261.13,208.11h-24.39v-22.64c0-3.08-1-5.68-2.96-7.88c-1.99-2.17-4.5-3.29-7.58-3.29s-5.49,1.09-7.25,3.29
	c-1.75,2.17-2.63,4.8-2.63,7.88v22.64h-21.44c-3.08,0-5.71,1.09-7.91,3.29c-2.2,2.17-3.29,4.8-3.29,7.88s1.09,5.37,3.29,6.88
	c2.2,1.54,4.83,2.29,7.91,2.29h21.44v23.31c0,3.08,0.88,5.71,2.63,7.88c1.75,2.17,4.17,3.29,7.25,3.29s5.59-1.09,7.58-3.29
	c1.96-2.17,2.96-4.83,2.96-7.88v-23.31h24.39l0,0c3.08,0,5.71-0.21,7.91-1.96s3.29-4.17,3.29-7.22c0-3.08-1.09-5.68-3.29-7.88
	C266.83,209.2,264.21,208.11,261.13,208.11L261.13,208.11z"/>
</svg>
